<?xml version="1.0" encoding="UTF-8" standalone="no"?>
<!-- Created with Inkscape (http://www.inkscape.org/) -->

<svg
   width="1024"
   height="1024"
   viewBox="0 0 1024 1024"
   version="1.1"
   id="svg1"
   inkscape:export-filename="favicon-180.png"
   inkscape:export-xdpi="16.875"
   inkscape:export-ydpi="16.875"
   sodipodi:docname="icon2.inkscape.svg"
   inkscape:version="1.4 (e7c3feb1, 2024-10-09)"
   xmlns:inkscape="http://www.inkscape.org/namespaces/inkscape"
   xmlns:sodipodi="http://sodipodi.sourceforge.net/DTD/sodipodi-0.dtd"
   xmlns="http://www.w3.org/2000/svg"
   xmlns:svg="http://www.w3.org/2000/svg">
  <sodipodi:namedview
     id="namedview1"
     pagecolor="#ffffff"
     bordercolor="#666666"
     borderopacity="1.0"
     inkscape:showpageshadow="2"
     inkscape:pageopacity="0.0"
     inkscape:pagecheckerboard="0"
     inkscape:deskcolor="#d1d1d1"
     inkscape:document-units="mm"
     inkscape:zoom="0.47088101"
     inkscape:cx="438.53967"
     inkscape:cy="524.54866"
     inkscape:window-width="1632"
     inkscape:window-height="997"
     inkscape:window-x="0"
     inkscape:window-y="25"
     inkscape:window-maximized="1"
     inkscape:current-layer="layer1" />
  <defs
     id="defs1">
    <rect
       x="38.226218"
       y="19.113109"
       width="140.1628"
       height="246.34674"
       id="rect1" />
    <rect
       x="38.226219"
       y="19.11311"
       width="140.1628"
       height="246.34674"
       id="rect1-7" />
  </defs>
  <g
     inkscape:label="Layer 1"
     inkscape:groupmode="layer"
     id="layer1">
    <text
       xml:space="preserve"
       id="text1"
       style="font-weight:bold;font-size:192px;line-height:1.25;font-family:serif;-inkscape-font-specification:'serif Bold';text-align:end;white-space:pre;shape-inside:url(#rect1);display:none;fill:#00ff00;stroke-width:0.118229"
       transform="matrix(6.2313464,5.7193218,-5.7193218,6.2313464,388.27484,-973.1634)"><tspan
         x="82.388672"
         y="188.71416"
         id="tspan1">?</tspan></text>
    <path
       d="m 127.95117,147.27666 h -3.84375 q -0.1875,-10.40625 0.9375,-15.5625 1.21875,-5.15625 6.09375,-14.15625 4.96875,-9.09375 6.46875,-14.53125 1.59375,-5.531254 1.59375,-13.593754 0,-12.46875 -4.875,-18.375 -4.875,-5.90625 -11.53125,-5.90625 -5.0625,0 -8.53125,2.71875 -2.625,2.0625 -2.625,4.3125 0,1.5 1.78125,4.6875 4.03125,7.21875 4.03125,12.28125 0,4.59375 -3.1875,7.6875 -3.09375,3.09375 -7.78125,3.09375 -5.25,0 -8.812498,-3.65625 -3.5625,-3.75 -3.5625,-9.84375 0,-11.0625 9.562498,-19.40625 9.5625,-8.34375 26.71875,-8.34375 18.1875,0 27.65625,8.71875 9.5625,8.625 9.5625,20.90625 0,8.90625 -4.875,16.500004 -4.875,7.5 -18.84375,16.6875 -9.375,6.1875 -12.375,11.0625 -2.90625,4.78125 -3.5625,14.71875 z m -1.03125,13.6875 q 6.28125,0 10.6875,4.40625 4.40625,4.40625 4.40625,10.6875 0,6.28125 -4.40625,10.78125 -4.40625,4.40625 -10.6875,4.40625 -6.28125,0 -10.6875,-4.40625 -4.40625,-4.5 -4.40625,-10.78125 0,-6.28125 4.40625,-10.6875 4.40625,-4.40625 10.6875,-4.40625 z"
       id="text1-4"
       style="font-weight:bold;font-size:192px;line-height:1.25;font-family:serif;-inkscape-font-specification:'serif Bold';text-align:end;white-space:pre;fill:#00ff00;stroke-width:0.118229"
       transform="matrix(6.2313464,5.7193218,-5.7193218,6.2313464,388.27484,-973.16335)"
       aria-label="?" />
  </g>
</svg>
