<?xml version="1.0" encoding="UTF-8"?>
<svg width="1024" height="1024" version="1.1" viewBox="0 0 1024 1024" xmlns="http://www.w3.org/2000/svg"><g stroke-width=".11823"><path transform="matrix(6.2313 5.7193 -5.7193 6.2313 388.27 -973.16)" d="m127.95 147.28h-3.8438q-0.1875-10.406 0.9375-15.562 1.2188-5.1562 6.0938-14.156 4.9688-9.0938 6.4688-14.531 1.5938-5.5313 1.5938-13.594 0-12.469-4.875-18.375t-11.531-5.9062q-5.0625 0-8.5312 2.7188-2.625 2.0625-2.625 4.3125 0 1.5 1.7812 4.6875 4.0312 7.2188 4.0312 12.281 0 4.5938-3.1875 7.6875-3.0938 3.0938-7.7812 3.0938-5.25 0-8.8125-3.6562-3.5625-3.75-3.5625-9.8438 0-11.062 9.5625-19.406 9.5625-8.3438 26.719-8.3438 18.188 0 27.656 8.7188 9.5625 8.625 9.5625 20.906 0 8.9062-4.875 16.5-4.875 7.5-18.844 16.688-9.375 6.1875-12.375 11.062-2.9062 4.7812-3.5625 14.719zm-1.0312 13.688q6.2812 0 10.688 4.4062t4.4062 10.688-4.4062 10.781q-4.4062 4.4062-10.688 4.4062t-10.688-4.4062q-4.4062-4.5-4.4062-10.781t4.4062-10.688 10.688-4.4062z" fill="#0f0" style="white-space:pre" aria-label="?"/></g></svg>
